<svg version="1.1" xmlns="http://www.w3.org/2000/svg" xmlns:xlink="http://www.w3.org/1999/xlink" xmlns:a="http://ns.adobe.com/AdobeSVGViewerExtensions/3.0/" x="0px" y="0px" viewBox="0 -0.005 100 35" overflow="visible" enable-background="new 0 -0.005 100 35" xml:space="preserve" fill="#FFFFFF">
  <path fill-rule="evenodd" clip-rule="evenodd" d="M0,34.616c0,0.303,0.261,0.549,0.564,0.549h6.639c0.303,0,0.564-0.246,0.564-0.549
    V21.047c0-0.304,0.238-0.55,0.542-0.55h9.305c0.301,0,0.563-0.245,0.563-0.549v-5.411c0-0.303-0.231-0.55-0.534-0.55H8.333
    c-0.303,0-0.565-0.246-0.565-0.549V6.972c0-0.304,0.238-0.55,0.542-0.55l14.522,0.003c0.303,0,0.564-0.246,0.564-0.55V0.549
    c0-0.303-0.23-0.549-0.534-0.549H0.542C0.237,0,0,0.246,0,0.549V34.616z"></path>
  <path fill-rule="evenodd" clip-rule="evenodd" d="M76.373,34.616c0,0.303,0.262,0.549,0.565,0.549h22.526
    c0.305,0,0.535-0.246,0.535-0.549v-5.327c0-0.303-0.262-0.549-0.567-0.549l-14.749,0.003c-0.305,0-0.542-0.245-0.542-0.549v-7.146
    c0-0.304,0.237-0.55,0.542-0.55h9.303c0.303,0,0.566-0.245,0.566-0.549v-5.411c0-0.303-0.233-0.55-0.535-0.55h-9.312
    c-0.303,0-0.564-0.246-0.564-0.549V6.972c0-0.304,0.237-0.55,0.542-0.55l14.735,0.003c0.305,0,0.567-0.246,0.567-0.55V0.549
    C99.986,0.246,99.755,0,99.451,0H76.915c-0.304,0-0.542,0.246-0.542,0.549V34.616z"></path>
  <path fill-rule="evenodd" clip-rule="evenodd" d="M43.924,35.165c-0.301,0-0.564-0.246-0.564-0.549V0.549
    C43.359,0.246,43.592,0,43.895,0h6.546c0.218,0,0.402,0.124,0.493,0.304l8.857,16.129c0.387,0.718,0.738,1.407,1.076,2.126
    c0.078,0.115,0.209,0.199,0.358,0.199c0.24,0,0.435-0.195,0.435-0.436c0-2.411,0-3.902,0-5.243V0.549C61.66,0.246,61.897,0,62.202,0
    h5.999c0.303,0,0.539,0.246,0.539,0.549v34.066c0,0.303-0.262,0.549-0.562,0.549H62.79c-0.19,0-0.407-0.098-0.507-0.247
    c0,0-10.329-18.938-11.017-20.464c-0.077-0.125-0.217-0.22-0.374-0.22c-0.239,0-0.436,0.209-0.436,0.449c0,1.894,0,19.934,0,19.934
    c0,0.303-0.264,0.549-0.563,0.549H43.924z"></path>
  <path fill-rule="evenodd" clip-rule="evenodd" d="M27.846,34.616c0,0.303,0.261,0.549,0.566,0.549h6.631
    c0.304,0,0.563-0.246,0.563-0.549V0.549c0-0.303-0.23-0.549-0.533-0.549l-6.676,0c-0.306,0-0.544,0.246-0.544,0.549L27.846,34.616z"></path>
</svg>
