<?xml version="1.0" encoding="UTF-8" standalone="no"?>
<svg width="180px" height="77px" viewBox="0 0 180 77" version="1.1" xmlns="http://www.w3.org/2000/svg" xmlns:xlink="http://www.w3.org/1999/xlink">
    <defs></defs>
    <g stroke="none" stroke-width="1" fill="none" fill-rule="evenodd">
        <g>
            <g>
                <path d="M175.538097,0.431129676 C175.538097,0.431129676 160.933779,28.4373363 159.983905,46.6003573 L159.983905,49.4126968 C159.983905,49.4126968 150.72263,57.1466271 143.954776,64.2946553 C143.954776,64.2946553 143.004901,65.5836439 143.479838,66.8726324 C143.954776,68.161621 145.973258,72.6144907 148.941615,75.7783719 C150.366428,76.950179 151.55377,75.8955526 151.55377,75.8955526 C151.55377,75.8955526 161.646185,66.6382703 166.276822,55.7404583 C167.226697,53.631205 166.276822,52.5765779 166.276822,52.5765779 L163.902136,49.4126968 C163.902136,49.4126968 163.781629,47.6707434 163.902136,46.6003581 C163.781629,46.6003581 166.514291,24.3360097 179.931266,1.13421435 C177.55658,-0.740678131 175.538097,0.431129676 175.538097,0.431129676 L175.538097,0.431129676 L175.538097,0.431129676 L175.538097,0.431129676 L175.538097,0.431129676 L175.538097,0.431129676 Z M178.224209,2.19924112 C178.224209,2.19924112 177.518071,0.805443631 176.004918,1.60189933 L173.886505,5.9824057 C173.886505,5.9824057 175.803164,6.67930445 175.803165,6.67930445 L178.224209,2.19924112 L178.224209,2.19924112 L178.224209,2.19924112 L178.224209,2.19924112 L178.224209,2.19924112 Z M150.266387,63.7891389 L148.571721,62.6610279 L149.861786,61.3230607 L151.556452,62.4511717 L154.365143,59.525369 L152.657237,58.3884447 L153.954046,57.0406093 L155.661952,58.1775336 L159.149336,54.5405441 L160.208502,55.2456135 L156.714499,58.8781964 L158.342968,59.9622405 L161.836971,56.3296576 L162.889517,57.0303203 L159.402133,60.6673099 L161.0968,61.7954209 L159.799991,63.1432563 L158.105324,62.0151453 L155.296633,64.940948 L157.004539,66.0778723 L155.714474,67.4158395 L154.006569,66.2789152 L150.525929,69.9060366 L149.466763,69.2009673 L152.947402,65.5738458 L151.325553,64.4942083 L147.838294,68.1169231 L146.779129,67.4118537 L150.266387,63.7891389 L150.266387,63.7891389 L150.266387,63.7891389 L150.266387,63.7891389 L150.266387,63.7891389 Z M154.261346,63.9793466 L156.973273,61.4319718 L155.400908,60.4881395 L152.695372,63.0393512 L154.261346,63.9793466 L154.261346,63.9793466 L154.261346,63.9793466 L154.261346,63.9793466 L154.261346,63.9793466 Z" fill="#4B4643"></path>
                <path d="M6.53357393,62.5233645 L6.53357393,26.9607477 L2.76563,26.3680374 C1.94712123,26.2269151 1.29091284,25.944675 0.796985138,25.5213084 C0.303057435,25.0979418 0.0560972877,24.5052374 0.0560972877,23.7431776 L0.0560972877,19.4671963 L6.53357393,19.4671963 L6.53357393,16.2496262 C6.53357393,13.7658754 6.90754214,11.5361781 7.65548982,9.56046729 C8.40343748,7.58475648 9.47595011,5.90542748 10.8730599,4.52242991 C12.2701697,3.13943233 13.9706667,2.0810317 15.974602,1.34719626 C17.9785372,0.613360817 20.2364585,0.246448598 22.7484338,0.246448598 C24.752369,0.246448598 26.6151541,0.514576758 28.336845,1.05084112 L28.1251628,6.30056075 C28.0687138,7.11906952 27.6876896,7.62710181 26.9820786,7.8246729 C26.2764676,8.02224398 25.4579711,8.12102804 24.5265646,8.12102804 C23.2846893,8.12102804 22.1768965,8.25509212 21.2031534,8.5232243 C20.2294102,8.79135648 19.4038577,9.25705276 18.7264712,9.9203271 C18.0490845,10.5836014 17.5339963,11.458546 17.1811908,12.5451869 C16.8283852,13.6318279 16.6519852,14.9795247 16.6519852,16.5883178 L16.6519852,19.4671963 L27.955817,19.4671963 L27.955817,26.9184112 L16.9906768,26.9184112 L16.9906768,62.5233645 L6.53357393,62.5233645 L6.53357393,62.5233645 L6.53357393,62.5233645 Z M34.3953707,62.5233645 L34.3953707,19.0861682 L40.5341557,19.0861682 C41.6066844,19.0861682 42.3546209,19.2837363 42.7779875,19.6788785 C43.2013541,20.0740207 43.4835942,20.751397 43.6247164,21.711028 L44.2597632,26.9607477 C45.8121074,24.2794259 47.6325565,22.1626246 49.721165,20.6102804 C51.8097736,19.0579361 54.1523671,18.2817757 56.7490155,18.2817757 C58.894073,18.2817757 60.672186,18.775696 62.083408,19.7635514 L60.7286417,27.5957944 C60.6439684,28.1038343 60.4605122,28.4636905 60.1782679,28.6753738 C59.8960235,28.8870572 59.5149993,28.9928972 59.0351837,28.9928972 C58.6118171,28.9928972 58.0332248,28.8941131 57.2993893,28.6965421 C56.5655539,28.498971 55.5918254,28.4001869 54.3781744,28.4001869 C52.2048925,28.4001869 50.3421074,28.9999473 48.7897632,30.199486 C47.2374189,31.3990246 45.9250022,33.1559697 44.8524735,35.4703738 L44.8524735,62.5233645 L34.3953707,62.5233645 L34.3953707,62.5233645 L34.3953707,62.5233645 Z M84.4414664,74.462243 C84.1309977,75.1960785 83.7288053,75.7535027 83.2348776,76.1345327 C82.7409499,76.5155627 81.9859576,76.7060748 80.9698776,76.7060748 L73.1799711,76.7060748 L81.3085692,59.3057944 L63.738943,19.0861682 L72.8836159,19.0861682 C73.7303493,19.0861682 74.3795016,19.2837363 74.8310926,19.6788785 C75.2826837,20.0740207 75.6213719,20.525605 75.8471673,21.0336449 L85.1188496,43.5566355 C85.4293185,44.290471 85.6974467,45.0525193 85.9232421,45.8428037 C86.1490377,46.6330881 86.3466057,47.4233605 86.5159524,48.2136449 C86.7417479,47.3951361 86.9887081,46.6048636 87.2568402,45.8428037 C87.5249725,45.0807439 87.8142687,44.3045835 88.1247374,43.5142991 L96.8460458,21.0336449 C97.0718414,20.469156 97.4458096,20.0034597 97.9679617,19.6365421 C98.490114,19.2696244 99.0757623,19.0861682 99.7249243,19.0861682 L108.107541,19.0861682 L84.4414664,74.462243 L84.4414664,74.462243 L84.4414664,74.462243 Z M114.25074,62.5233645 L114.25074,19.0861682 L120.389525,19.0861682 C121.462054,19.0861682 122.20999,19.2837363 122.633357,19.6788785 C123.056723,20.0740207 123.338963,20.751397 123.480086,21.711028 L124.115132,26.9607477 C125.667476,24.2794259 127.487926,22.1626246 129.576534,20.6102804 C131.665143,19.0579361 134.007736,18.2817757 136.604385,18.2817757 C138.749442,18.2817757 140.527555,18.775696 141.938777,19.7635514 L140.584011,27.5957944 C140.499338,28.1038343 140.315881,28.4636905 140.033637,28.6753738 C139.751393,28.8870572 139.370368,28.9928972 138.890553,28.9928972 C138.467186,28.9928972 137.888594,28.8941131 137.154759,28.6965421 C136.420923,28.498971 135.447194,28.4001869 134.233544,28.4001869 C132.060262,28.4001869 130.197476,28.9999473 128.645132,30.199486 C127.092788,31.3990246 125.780371,33.1559697 124.707843,35.4703738 L124.707843,62.5233645 L114.25074,62.5233645 L114.25074,62.5233645 L114.25074,62.5233645 Z" fill="#FFFFFF"></path>
            </g>
        </g>
    </g>
</svg>
